<svg width="46" height="46" viewBox="0 0 46 46" fill="none" xmlns="http://www.w3.org/2000/svg">
<path d="M8.6062 3.8147e-05H37.2039C41.9331 3.8147e-05 45.8101 3.86936 45.8101 8.60622V37.2039C45.8101 41.9331 41.9407 45.8101 37.2039 45.8101H8.6062C3.87702 45.8101 0 41.9408 0 37.2039V8.60622C0 3.86936 3.86934 3.8147e-05 8.6062 3.8147e-05Z" fill="white"/>
<path d="M26.7721 13.6841C28.0082 13.6841 30.1041 13.6994 30.1041 13.6994V9.49997C30.1041 9.49997 28.6454 9.46158 26.7414 9.49997C24.8298 9.53836 20.139 9.68422 20.139 15.2118V18.7741H16.5V23.1424H20.139V36.7849H25.3442V23.1424H29.5974L30.1041 18.7741H25.3365V15.2118C25.3365 15.2118 25.5361 13.6841 26.7721 13.6841Z" fill="black"/>
</svg>
