<svg width="47" height="46" viewBox="0 0 47 46" fill="none" xmlns="http://www.w3.org/2000/svg">
<path d="M9.46606 0H38.0638C42.7929 0 46.6699 3.86933 46.6699 8.60618V37.2039C46.6699 41.933 42.8006 45.8101 38.0638 45.8101H9.46606C4.73688 45.8101 0.859863 41.9407 0.859863 37.2039V8.60618C0.859863 3.86933 4.72921 0 9.46606 0Z" fill="white"/>
<path d="M10.8403 17.8421C10.871 16.1454 11.132 14.4795 12.0994 13.0208C12.9899 11.6696 14.2106 10.756 15.7537 10.2339C17.2661 9.72724 18.8246 9.72724 20.3754 9.71957C23.3696 9.71189 26.3637 9.71957 29.3578 9.75027C31.0391 9.76563 32.6513 10.1188 34.0716 11.0708C35.6762 12.1379 36.6512 13.658 36.9813 15.5389C37.1732 16.6521 37.2653 17.796 37.273 18.9246C37.2884 22.149 37.25 25.3658 37.2039 28.5902C37.1809 30.0028 36.8661 31.3694 36.1214 32.5977C35.2232 34.0718 33.9488 35.0468 32.2982 35.5765C30.8011 36.0602 29.258 36.0755 27.7226 36.0755C24.7822 36.0832 21.8495 36.0755 18.9091 36.0525C17.366 36.0448 15.8689 35.7838 14.51 35.0161C12.9208 34.1255 11.8614 32.7897 11.3163 31.0392C10.9478 29.857 10.8787 28.6516 10.825 27.4309C10.8096 27.2237 10.7866 20.3141 10.8403 17.8421ZM13.4045 29.3426C13.535 30.6093 14.0724 31.7379 15.1396 32.5593C16.1837 33.3654 17.4043 33.6111 18.6481 33.6341C22.6018 33.7263 26.5633 33.8721 30.5094 33.5113C31.3999 33.4269 32.2137 33.1198 32.9277 32.5824C34.2943 31.5613 34.7702 30.0873 34.8086 28.4904C34.8854 25.527 34.87 22.5559 34.8547 19.5925C34.8547 18.533 34.8009 17.4659 34.6858 16.4141C34.563 15.2625 34.087 14.2491 33.2041 13.4507C32.2291 12.5755 31.0391 12.2377 29.7724 12.207C26.5556 12.1456 23.3312 12.0995 20.1144 12.1149C18.9321 12.1225 17.7345 12.1302 16.5829 12.5064C14.6175 13.1359 13.5504 14.6253 13.4045 16.4679C13.2202 18.7941 13.2433 27.8532 13.4045 29.3426Z" fill="black"/>
<path d="M24.0759 16.1299C27.7533 16.0992 30.8856 19.1317 30.8702 22.9473C30.8549 26.7475 27.6765 29.734 24.0145 29.7033C20.268 29.6726 17.1817 26.6093 17.2278 22.8475C17.2662 19.078 20.3217 16.0839 24.0759 16.1299ZM28.4442 22.9627C28.521 20.6365 26.5173 18.5406 24.0605 18.5406C21.6499 18.5406 19.6615 20.5213 19.6615 22.8629C19.6615 25.3503 21.6115 27.3003 24.0913 27.2926C26.4635 27.2926 28.4442 25.3196 28.4442 22.9627Z" fill="black"/>
<path d="M31.1083 17.4351C30.2254 17.5195 29.5191 16.7211 29.4961 15.8842C29.4731 15.0244 30.2485 14.2644 31.116 14.272C32.0065 14.2874 32.7666 15.0244 32.7282 15.8996C32.7052 16.698 32.0526 17.5118 31.1083 17.4351Z" fill="black"/>
</svg>
