<svg width="46" height="46" viewBox="0 0 46 46" fill="none" xmlns="http://www.w3.org/2000/svg">
<path d="M8.60618 0H37.2039C41.933 0 45.8101 3.86933 45.8101 8.60618V37.2039C45.8101 41.933 41.9407 45.8101 37.2039 45.8101H8.60618C3.86933 45.8101 0 41.933 0 37.2039V8.60618C0 3.86933 3.86933 0 8.60618 0Z" fill="white"/>
<path d="M23.2618 17.0356H21.02V23.7993H23.2618V17.0356Z" fill="black"/>
<path d="M29.4419 17.0356H27.2002V23.7993H29.4419V17.0356Z" fill="black"/>
<path d="M12.5905 10.2798L10.9092 14.771V32.751H17.097V36.1674H20.4597L23.876 32.751H28.9353L35.6452 26.0411V10.2798H12.5905ZM33.4035 24.8972L29.442 28.8587H23.2849L19.9146 32.229V28.8587H14.8399V12.5215H33.4035V24.8972Z" fill="black"/>
</svg>
