<svg width="47" height="46" viewBox="0 0 47 46" fill="none" xmlns="http://www.w3.org/2000/svg">
<path d="M9.5593 0H38.157C42.8862 0 46.7632 3.86933 46.7632 8.60618V37.2039C46.7632 41.933 42.8939 45.8101 38.157 45.8101H9.5593C4.83013 45.8101 0.953125 41.9407 0.953125 37.2039V8.60618C0.953125 3.86933 4.82245 0 9.5593 0Z" fill="white"/>
<path d="M34.0805 12.1914H14.373C11.2407 12.1914 8.69189 14.7326 8.69189 17.8726V27.9451C8.69189 31.0774 11.2331 33.6262 14.373 33.6262H34.0882C37.2205 33.6262 39.7693 31.0851 39.7693 27.9451V17.8726C39.7617 14.7326 37.2205 12.1914 34.0805 12.1914ZM21.2749 26.7244V18.8706L29.0212 22.8013L21.2749 26.7244Z" fill="black"/>
</svg>
